<?xml version="1.0" encoding="UTF-8"?>
<svg width="160px" height="222px" viewBox="0 0 160 222" version="1.1" xmlns="http://www.w3.org/2000/svg" xmlns:xlink="http://www.w3.org/1999/xlink">
    <!-- Generator: Sketch 46 (44423) - http://www.bohemiancoding.com/sketch -->
    <title>fire</title>
    <desc>Created with Sketch.</desc>
    <defs></defs>
    <g id="Website" stroke="none" stroke-width="1" fill="none" fill-rule="evenodd">
        <g id="error" transform="translate(-640.000000, -324.000000)" fill="#848484">
            <g id="fire" transform="translate(640.000000, 323.000000)">
                <path d="M68.482459,191.845734 L22.4122952,199.969147 L4.7502331,196.854849 C2.03076159,196.375332 0.214919024,193.782041 0.694435226,191.062569 L1.73632429,185.153723 L1.73632429,185.153723 C2.21584049,182.434251 4.80913243,180.618408 7.52860395,181.097925 L7.52860395,181.097925 L68.482459,191.845734 Z M137.587705,204.030853 L155.249767,207.145151 C157.969238,207.624668 159.785081,210.217959 159.305565,212.937431 L158.263676,218.846277 C157.78416,221.565749 155.190868,223.381592 152.471396,222.902075 L91.517541,212.154266 L137.587705,204.030853 Z M4.7502331,207.145151 L152.471396,181.097925 C155.190868,180.618408 157.78416,182.434251 158.263676,185.153723 L159.305565,191.062569 C159.785081,193.782041 157.969238,196.375332 155.249767,196.854849 L7.52860395,222.902075 C4.80913243,223.381592 2.21584049,221.565749 1.73632429,218.846277 L0.694435226,212.937431 L0.694435226,212.937431 C0.214919024,210.217959 2.03076159,207.624668 4.7502331,207.145151 L4.7502331,207.145151 Z" id="logs"></path>
                <path d="M60,136 C80.7419388,145.932461 88.5416677,159.028689 82.6313984,183.842908 C80.9502692,190.901334 80.5524015,200.770624 80.4872265,207.102621 C80.4688449,208.847254 78.6819122,209.634307 78.0184463,208.183773 C74.2048454,199.848572 67.4029438,188.95896 70.0741801,170.864353 C72.9178881,151.60531 60,136 60,136 Z M86.4589574,114.755533 C86.4087689,115.922748 85.3488082,116.340604 84.8748696,115.383607 C82.1529505,109.886743 78.3215434,98.7496298 84.4748821,87.5860478 C93.1232818,71.8982876 90.6759677,57.9795955 90.6759677,57.9795955 C90.6759677,57.9795955 101.740352,80.5792991 92.4745287,97.1389527 C87.8156721,105.465843 86.6095251,111.252148 86.4589574,114.755533 Z M69.4589574,2.1373855 C69.6095251,5.64077092 70.8156721,11.4270759 75.4745287,19.753966 C84.7403516,36.3136196 73.6759677,58.9133232 73.6759677,58.9133232 C73.6759677,58.9133232 76.1232818,44.9946311 67.4748821,29.3068709 C61.3215434,18.1432889 65.1529505,7.00617617 67.8748696,1.50931164 C68.3488082,0.552314966 69.4087689,0.970170571 69.4589574,2.1373855 Z" id="smoke"></path>
            </g>
        </g>
    </g>
</svg>