<?xml version="1.0" encoding="UTF-8"?>
<svg width="146px" height="304px" viewBox="0 0 146 304" version="1.1" xmlns="http://www.w3.org/2000/svg" xmlns:xlink="http://www.w3.org/1999/xlink">
    <!-- Generator: Sketch 46.1 (44463) - http://www.bohemiancoding.com/sketch -->
    <title>Flint Logo</title>
    <desc>Created with Sketch.</desc>
    <defs></defs>
    <g id="Logo" stroke="none" stroke-width="1" fill="none" fill-rule="evenodd">
        <g id="Group-Copy" fill="#FF9800">
            <g id="mark">
                <path d="M72.5472563,0.237980558 C72.5472563,0.237980558 74.8633069,44.2901028 44.0056768,64.9403722 C15.0147144,84.3430531 12.660255,111.11263 8.35846933,129.103163 C7.60949773,132.233615 11.8690337,134.388193 14.2350158,132.088191 C22.8193826,123.737767 36.7310501,111.254227 49.187024,104.83259 C92.9768971,82.2573606 96.4913023,50.7461822 72.5472563,0.237980558" id="top"></path>
                <path d="M6.96346171,181.818754 C4.23643689,184.233565 0.0191506278,181.857024 0.652895831,178.27499 C4.29405009,157.70126 16.9075001,121.253305 60.6359191,115.803716 C122.09,108.149798 145.13528,69.8802106 145.13528,69.8802106 C145.13528,69.8802106 129.77176,154.073303 64.4767992,161.727221 C31.6449567,165.577141 15.148377,174.570494 6.96346171,181.818754" id="middle"></path>
                <path d="M107.954793,179.161631 C107.954793,200.297924 90.759173,217.431218 69.5459926,217.431218 L46.6812338,217.431218 L46.6812338,280.354723 L8.27243362,303.316476 L8.27243362,198.296424 C8.27243362,187.730191 16.872164,179.161631 27.4768337,179.161631 L107.954793,179.161631 Z" id="bottom"></path>
            </g>
        </g>
    </g>
</svg>